<svg xmlns="http://www.w3.org/2000/svg" width="1300" height="650" viewBox="0 0 1300 650">
<defs><marker id="a" markerWidth="8" markerHeight="8" refX="7" refY="3" orient="auto"><path d="M0,0 L8,3 L0,6 z" fill="#333"/></marker></defs>
<rect width="1300" height="650" fill="white"/>
<g font-family="Arial" font-size="14" fill="#111">
<rect x="30" y="80" width="120" height="55" rx="10" fill="#f4f4f4" stroke="#333"/><text x="90" y="113" text-anchor="middle">User</text>
<rect x="30" y="500" width="120" height="55" rx="10" fill="#f4f4f4" stroke="#333"/><text x="90" y="533" text-anchor="middle">Pitch Owner</text>
<g fill="#fafafa" stroke="#333"><rect x="230" y="30" width="210" height="65" rx="10"/><rect x="230" y="115" width="210" height="65" rx="10"/><rect x="230" y="200" width="210" height="65" rx="10"/><rect x="230" y="285" width="210" height="65" rx="10"/><rect x="230" y="370" width="210" height="65" rx="10"/><rect x="230" y="455" width="210" height="65" rx="10"/></g>
<text x="335" y="57" text-anchor="middle">P1 Authentication &amp; User</text><text x="335" y="142" text-anchor="middle">P2 Pitch &amp; Schedule</text><text x="335" y="227" text-anchor="middle">P3 Booking Management</text><text x="335" y="312" text-anchor="middle">P4 Feedback &amp; Comment</text><text x="335" y="397" text-anchor="middle">P5 Tournament / Match / Statistics</text><text x="335" y="482" text-anchor="middle">P6 Livestream Link &amp; Revenue</text>
<rect x="600" y="250" width="240" height="100" rx="12" fill="#f4f4f4" stroke="#333" stroke-width="2"/><text x="720" y="285" text-anchor="middle">D1 Soccer Booker Database</text><text x="720" y="310" text-anchor="middle" font-size="12">Read / Write business data</text>
<rect x="970" y="120" width="190" height="60" rx="10" fill="#f4f4f4" stroke="#333"/><text x="1065" y="155" text-anchor="middle">Browser Geolocation</text>
<rect x="970" y="430" width="190" height="60" rx="10" fill="#f4f4f4" stroke="#333"/><text x="1065" y="465" text-anchor="middle">External Livestream</text>
<line x1="150" y1="108" x2="230" y2="62" stroke="#333" marker-end="url(#a)"/><line x1="150" y1="108" x2="230" y2="147" stroke="#333" marker-end="url(#a)"/><line x1="150" y1="108" x2="230" y2="232" stroke="#333" marker-end="url(#a)"/><line x1="150" y1="108" x2="230" y2="317" stroke="#333" marker-end="url(#a)"/><line x1="150" y1="108" x2="230" y2="402" stroke="#333" marker-end="url(#a)"/><line x1="150" y1="108" x2="230" y2="487" stroke="#333" marker-end="url(#a)"/>
<line x1="150" y1="527" x2="230" y2="62" stroke="#333" marker-end="url(#a)"/><line x1="150" y1="527" x2="230" y2="147" stroke="#333" marker-end="url(#a)"/><line x1="150" y1="527" x2="230" y2="232" stroke="#333" marker-end="url(#a)"/><line x1="150" y1="527" x2="230" y2="402" stroke="#333" marker-end="url(#a)"/><line x1="150" y1="527" x2="230" y2="487" stroke="#333" marker-end="url(#a)"/>
<line x1="440" y1="62" x2="600" y2="275" stroke="#333" marker-end="url(#a)"/><line x1="440" y1="147" x2="600" y2="285" stroke="#333" marker-end="url(#a)"/><line x1="440" y1="232" x2="600" y2="295" stroke="#333" marker-end="url(#a)"/><line x1="440" y1="317" x2="600" y2="305" stroke="#333" marker-end="url(#a)"/><line x1="440" y1="402" x2="600" y2="315" stroke="#333" marker-end="url(#a)"/><line x1="440" y1="487" x2="600" y2="325" stroke="#333" marker-end="url(#a)"/>
<line x1="440" y1="147" x2="970" y2="150" stroke="#333" marker-end="url(#a)"/><line x1="440" y1="487" x2="970" y2="460" stroke="#333" marker-end="url(#a)"/>
</g></svg>